<?xml version="1.0" encoding="UTF-8"?>
<svg xmlns="http://www.w3.org/2000/svg" xmlns:xlink="http://www.w3.org/1999/xlink" width="14pt" height="14pt" viewBox="0 0 14 14" version="1.1">
<g id="surface7693686">
<path style=" stroke:none;fill-rule:nonzero;fill:rgb(100%,100%,100%);fill-opacity:1;" d="M 7.734375 8.671875 L 9.183594 10.121094 C 8.960938 10.542969 8.9375 10.960938 9.171875 11.191406 L 11.8125 13.832031 C 12.144531 14.167969 12.871094 13.984375 13.425781 13.425781 C 13.984375 12.867188 14.167969 12.144531 13.832031 11.8125 L 11.195312 9.171875 C 10.960938 8.9375 10.542969 8.960938 10.121094 9.179688 L 8.671875 7.734375 Z M 4.957031 0 C 2.21875 0 0 2.21875 0 4.957031 C 0 7.699219 2.21875 9.917969 4.957031 9.917969 C 7.699219 9.917969 9.917969 7.699219 9.917969 4.957031 C 9.917969 2.21875 7.699219 0 4.957031 0 Z M 4.957031 8.75 C 2.863281 8.75 1.167969 7.050781 1.167969 4.957031 C 1.167969 2.863281 2.863281 1.167969 4.957031 1.167969 C 7.050781 1.167969 8.75 2.863281 8.75 4.957031 C 8.75 7.050781 7.050781 8.75 4.957031 8.75 Z M 4.957031 8.75 "/>
</g>
</svg>
